# xmcd
#
# Track frame offsets:
#   150
#   18392
#   31519
#   46400
#   71832
#   91831
#   112799
#   135045
#   149943
#   165847
#   181189
#   196617
#   213635
#   229092
#   247274
#   262387
#   279265
#   294507
#   311202
#
# Disc length: 4314 seconds
#
# Revision: 0
# Processed by: cddbd v1.5.1PL2 Copyright (c) Steve Scherf et al.
# Submitted via: GXTranscoder 2.0.1939
#
DISCID=0f10d813
DTITLE=une compile - sentimental french zouk
DYEAR=2001
DGENRE=Blues
TTITLE0=le son de ta voix
TTITLE1=j'ai déposé les clé
TTITLE2=sous le vent
TTITLE3=a soweto
TTITLE4=troubazouk
TTITLE5=moncompe/ti bom
TTITLE6=sensuel
TTITLE7=corps a corps
TTITLE8=parle moi d'elle
TTITLE9=j'ai bobo
TTITLE10=ma petite lumière
TTITLE11=je l'appelle
TTITLE12=lan mou dou dou
TTITLE13=please baby
TTITLE14=ou pai
TTITLE15=je vous aime
TTITLE16=iya iya oh oh
TTITLE17=viens
TTITLE18=t'aimer one more night
EXTD=
EXTT0=
EXTT1=
EXTT2=
EXTT3=
EXTT4=
EXTT5=
EXTT6=
EXTT7=
EXTT8=
EXTT9=
EXTT10=
EXTT11=
EXTT12=
EXTT13=
EXTT14=
EXTT15=
EXTT16=
EXTT17=
EXTT18=
PLAYORDER=
